
<svg width="40" height="40" viewBox="0 0 40 40" fill="none" xmlns="http://www.w3.org/2000/svg">
<rect width="40" height="40" rx="20" fill="#FAFAFA"/>
<mask id="mask0_1_680" style="mask-type:alpha" maskUnits="userSpaceOnUse" x="8" y="8" width="24" height="24">
<rect x="8" y="8" width="24" height="24" fill="#D9D9D9"/>
</mask>
<g mask="url(#mask0_1_680)">
<path d="M20.0141 30.6359C19.4175 30.6359 18.9067 30.4248 18.4819 30.0027C18.057 29.5806 17.8445 29.0732 17.8445 28.4804H22.1696C22.1696 29.0775 21.9585 29.5861 21.5364 30.006C21.1143 30.4259 20.6069 30.6359 20.0141 30.6359ZM11.5195 27.4804V24.8304H13.35V18.3109C13.35 16.8051 13.7925 15.4558 14.6777 14.263C15.5628 13.0703 16.7286 12.2931 18.175 11.9315V11.3445C18.175 10.8376 18.3524 10.4067 18.7073 10.0518C19.0621 9.69696 19.493 9.51953 20 9.51953C20.4261 9.51953 20.8014 9.65123 21.1261 9.91463C21.4507 10.178 21.6554 10.5086 21.7402 10.9065V11.0478C21.4062 11.5557 21.1715 12.0956 21.0364 12.6674C20.9013 13.2391 20.875 13.8239 20.9576 14.4217C20.798 14.3922 20.6424 14.3663 20.4908 14.3441C20.3392 14.3219 20.1756 14.3109 20 14.3109C18.9 14.3109 17.9583 14.7025 17.175 15.4859C16.3917 16.2692 16 17.2109 16 18.3109V24.8304H24V18.6739C24.4036 18.8638 24.8328 19.0009 25.2875 19.0853C25.7422 19.1697 26.1964 19.1884 26.65 19.1413V24.8304H28.4804V27.4804H11.5195Z" fill="#1C1B1F"/>
<path d="M23.8851 16.1998C24.5316 16.8463 25.3167 17.1696 26.2403 17.1696C27.1639 17.1696 27.949 16.8463 28.5955 16.1998C29.242 15.5532 29.5653 14.7681 29.5653 13.8445C29.5653 12.9209 29.242 12.1358 28.5955 11.4893C27.949 10.8428 27.1639 10.5195 26.2403 10.5195C25.3167 10.5195 24.5316 10.8428 23.8851 11.4893C23.2385 12.1358 22.9153 12.9209 22.9153 13.8445C22.9153 14.7681 23.2385 15.5532 23.8851 16.1998Z" fill="#B82F70"/>
</g>
</svg>