
<svg width="40" height="40" viewBox="0 0 40 40" fill="none" xmlns="http://www.w3.org/2000/svg">
<rect width="40" height="40" rx="20" fill="#FAFAFA"/>
<path fill-rule="evenodd" clip-rule="evenodd" d="M23.2266 27.9999C27.0115 27.9999 30.0797 24.9317 30.0797 21.1468C30.0797 17.3619 27.0115 14.2936 23.2266 14.2936C19.4417 14.2936 16.3735 17.3619 16.3735 21.1468C16.3735 24.9317 19.4417 27.9999 23.2266 27.9999ZM23.2264 24.0969C24.8557 24.0969 26.1765 22.7761 26.1765 21.1468C26.1765 19.5175 24.8557 18.1967 23.2264 18.1967C21.5972 18.1967 20.2764 19.5175 20.2764 21.1468C20.2764 22.7761 21.5972 24.0969 23.2264 24.0969Z" fill="black"/>
<path fill-rule="evenodd" clip-rule="evenodd" d="M13.8381 12H9.92026V24.0239C9.92026 26.1849 11.6698 27.9372 13.8298 27.9417V27.9562H16.1188V24.0458H15.0066L15.0062 24.0454C14.9968 24.0457 14.9874 24.0458 14.978 24.0458C14.3482 24.0458 13.8378 23.5353 13.8378 22.9056C13.8378 22.8962 13.8379 22.8868 13.8381 22.8775V12Z" fill="black"/>
</svg>